<svg xmlns="http://www.w3.org/2000/svg" viewBox="0 0 1024 1024" width="1024" height="1024">
  <rect width="100%" height="100%" fill="#e9d8b9"/>
  <path d="M 446.821402,376.033981 C 355.615134,373.900575 304.836559,336.585311 288.911082,264.652766 S 276.229061,191.258465 343.728719,205.0857 S 467.621574,262.1569 461.063008,365.577845 C 413.380573,302.018557 361.4594,264.60354 352.206706,267.303043 S 394.671779,301.424174 446.821402,376.033981 Z" fill="#a8ca9c" />
  <path d="M 482.172164,293.817542 C 481.018832,236.67391 509.612119,210.760083 552.684919,190.993772 S 597.83224,181.340492 594.535752,239.308167 S 534.443424,321.32209 520.278077,324.527235 S 483.325497,350.961174 482.172164,293.817542 Z" fill="#a7cb9c" />
  <path d="M 697.234431,697.115896 C 879.635438,706.706049 924.982871,470.897546 739.046416,472.570971 L 741.236459,524.890512 C 820.774191,491.855402 856.931117,629.239103 718.844608,652.168169 Z" fill="#fffefd" />
  <path d="M 267.929108,790.792605 C 255.014325,790.792605 225.80238,842.349375 481.943136,842.349375 S 708.871947,790.792605 695.957164,790.792605 Z" fill="#fffefd" />
  <path d="M 233.77954,429.401578 C 247.977289,407.336173 370.966381,405.124317 481.943136,405.124317 S 715.908983,407.336173 730.106732,429.401578 S 791.603859,804.944825 481.943136,804.944825 S 219.581791,451.466983 233.77954,429.401578 Z" fill="#fffefd" />
  <path d="M 727.320672,442.507737 A 134.098449,115.510948 0.857501 1,0 644.657712,398.566414 C 659.892303,415.840909 614.376262,477.428659 662.485216,457.573662 S 694.253264,437.202711 727.320672,442.507737 Z M 676.993196,330.010165 A 15.928411,16.14012 0 1,0 708.850019,330.010165 A 15.928411,16.14012 0 1,0 676.993196,330.010165 Z M 735.360998,330.209454 A 16.083052,15.93765 0 1,0 767.527102,330.209454 A 16.083052,15.93765 0 1,0 735.360998,330.209454 Z M 793.56419,330.194861 A 16.243627,15.994364 0 1,0 826.051444,330.194861 A 16.243627,15.994364 0 1,0 793.56419,330.194861 Z" fill="#fd9d8d" fill-rule="evenodd" />
  <ellipse cx="387.159332" cy="572.254891" rx="19.495536" ry="20.006094" fill="#4d3b34" />
  <ellipse cx="576.72694" cy="572.254891" rx="19.495536" ry="20.006094" fill="#4d3b34" />
  <path d="M 451.308912,595.340128 A 36.063099,38.809449 0 0,0 512.57736,595.340128" stroke="#4d3b34" stroke-width="16.922081" stroke-linecap="round" fill="none" />
</svg>
